<mxfile host="app.diagrams.net" agent="Mozilla/5.0 (Macintosh; Intel Mac OS X 10_15_7) AppleWebKit/537.36 (KHTML, like Gecko) Chrome/137.0.0.0 Safari/537.36 Edg/137.0.0.0" version="27.1.6">
  <diagram name="第 1 页" id="Rd4k-c5nyx-5NQ8se79g">
    <mxGraphModel dx="1183" dy="794" grid="1" gridSize="10" guides="1" tooltips="1" connect="1" arrows="1" fold="1" page="1" pageScale="1" pageWidth="827" pageHeight="1169" math="0" shadow="0">
      <root>
        <mxCell id="0" />
        <mxCell id="1" parent="0" />
        <mxCell id="XD7w7CoPH_M2G8A22QaK-30" style="rounded=0;orthogonalLoop=1;jettySize=auto;html=1;entryX=0;entryY=0.5;entryDx=0;entryDy=0;exitX=1;exitY=0.3333333333333333;exitDx=0;exitDy=0;exitPerimeter=0;" edge="1" parent="1" source="13VthSZgflkiJFEwZ5WM-1" target="XD7w7CoPH_M2G8A22QaK-26">
          <mxGeometry relative="1" as="geometry" />
        </mxCell>
        <mxCell id="XD7w7CoPH_M2G8A22QaK-32" style="edgeStyle=none;rounded=0;orthogonalLoop=1;jettySize=auto;html=1;entryX=0;entryY=0.5;entryDx=0;entryDy=0;exitX=1;exitY=0.3333333333333333;exitDx=0;exitDy=0;exitPerimeter=0;" edge="1" parent="1" source="13VthSZgflkiJFEwZ5WM-1" target="XD7w7CoPH_M2G8A22QaK-1">
          <mxGeometry relative="1" as="geometry" />
        </mxCell>
        <mxCell id="XD7w7CoPH_M2G8A22QaK-33" style="edgeStyle=none;rounded=0;orthogonalLoop=1;jettySize=auto;html=1;entryX=0;entryY=0.5;entryDx=0;entryDy=0;exitX=1;exitY=0.3333333333333333;exitDx=0;exitDy=0;exitPerimeter=0;" edge="1" parent="1" source="13VthSZgflkiJFEwZ5WM-1" target="13VthSZgflkiJFEwZ5WM-2">
          <mxGeometry relative="1" as="geometry" />
        </mxCell>
        <mxCell id="XD7w7CoPH_M2G8A22QaK-34" style="edgeStyle=none;rounded=0;orthogonalLoop=1;jettySize=auto;html=1;entryX=0;entryY=0.5;entryDx=0;entryDy=0;exitX=1;exitY=0.3333333333333333;exitDx=0;exitDy=0;exitPerimeter=0;" edge="1" parent="1" source="13VthSZgflkiJFEwZ5WM-1" target="XD7w7CoPH_M2G8A22QaK-13">
          <mxGeometry relative="1" as="geometry" />
        </mxCell>
        <mxCell id="XD7w7CoPH_M2G8A22QaK-37" style="edgeStyle=none;rounded=0;orthogonalLoop=1;jettySize=auto;html=1;entryX=0;entryY=0.5;entryDx=0;entryDy=0;exitX=1;exitY=0.3333333333333333;exitDx=0;exitDy=0;exitPerimeter=0;" edge="1" parent="1" source="13VthSZgflkiJFEwZ5WM-1" target="XD7w7CoPH_M2G8A22QaK-36">
          <mxGeometry relative="1" as="geometry" />
        </mxCell>
        <mxCell id="XD7w7CoPH_M2G8A22QaK-38" style="edgeStyle=none;rounded=0;orthogonalLoop=1;jettySize=auto;html=1;entryX=0;entryY=0.5;entryDx=0;entryDy=0;exitX=1;exitY=0.3333333333333333;exitDx=0;exitDy=0;exitPerimeter=0;" edge="1" parent="1" source="13VthSZgflkiJFEwZ5WM-1" target="XD7w7CoPH_M2G8A22QaK-16">
          <mxGeometry relative="1" as="geometry" />
        </mxCell>
        <mxCell id="XD7w7CoPH_M2G8A22QaK-39" style="edgeStyle=none;rounded=0;orthogonalLoop=1;jettySize=auto;html=1;entryX=0;entryY=0.5;entryDx=0;entryDy=0;exitX=1;exitY=0.3333333333333333;exitDx=0;exitDy=0;exitPerimeter=0;" edge="1" parent="1" source="13VthSZgflkiJFEwZ5WM-1" target="XD7w7CoPH_M2G8A22QaK-18">
          <mxGeometry relative="1" as="geometry" />
        </mxCell>
        <mxCell id="XD7w7CoPH_M2G8A22QaK-42" style="edgeStyle=none;rounded=0;orthogonalLoop=1;jettySize=auto;html=1;exitX=1;exitY=0.3333333333333333;exitDx=0;exitDy=0;exitPerimeter=0;entryX=0;entryY=0.5;entryDx=0;entryDy=0;" edge="1" parent="1" source="13VthSZgflkiJFEwZ5WM-1" target="XD7w7CoPH_M2G8A22QaK-20">
          <mxGeometry relative="1" as="geometry" />
        </mxCell>
        <mxCell id="13VthSZgflkiJFEwZ5WM-1" value="销售" style="shape=umlActor;verticalLabelPosition=bottom;verticalAlign=top;html=1;outlineConnect=0;" parent="1" vertex="1">
          <mxGeometry x="50" y="75" width="30" height="60" as="geometry" />
        </mxCell>
        <mxCell id="13VthSZgflkiJFEwZ5WM-2" value="指定拜访计划" style="ellipse;whiteSpace=wrap;html=1;" parent="1" vertex="1">
          <mxGeometry x="300" y="220" width="90" height="50" as="geometry" />
        </mxCell>
        <mxCell id="XD7w7CoPH_M2G8A22QaK-1" value="销售机会" style="ellipse;whiteSpace=wrap;html=1;" vertex="1" parent="1">
          <mxGeometry x="300" y="150" width="90" height="50" as="geometry" />
        </mxCell>
        <mxCell id="XD7w7CoPH_M2G8A22QaK-11" value="&lt;ul style=&quot;box-sizing: border-box; --tw-border-spacing-x: 0; --tw-border-spacing-y: 0; --tw-translate-x: 0; --tw-translate-y: 0; --tw-rotate: 0; --tw-skew-x: 0; --tw-skew-y: 0; --tw-scale-x: 1; --tw-scale-y: 1; --tw-pan-x: ; --tw-pan-y: ; --tw-pinch-zoom: ; --tw-scroll-snap-strictness: proximity; --tw-ordinal: ; --tw-slashed-zero: ; --tw-numeric-figure: ; --tw-numeric-spacing: ; --tw-numeric-fraction: ; --tw-ring-inset: ; --tw-ring-offset-width: 0px; --tw-ring-offset-color: light-dark(#fff, #000000); --tw-ring-color: rgb(59 130 246 / .5); --tw-ring-offset-shadow: 0 0 #0000; --tw-ring-shadow: 0 0 #0000; --tw-shadow: 0 0 #0000; --tw-shadow-colored: 0 0 #0000; --tw-blur: ; --tw-brightness: ; --tw-contrast: ; --tw-grayscale: ; --tw-hue-rotate: ; --tw-invert: ; --tw-saturate: ; --tw-sepia: ; --tw-drop-shadow: ; --tw-backdrop-blur: ; --tw-backdrop-brightness: ; --tw-backdrop-contrast: ; --tw-backdrop-grayscale: ; --tw-backdrop-hue-rotate: ; --tw-backdrop-invert: ; --tw-backdrop-opacity: ; --tw-backdrop-saturate: ; --tw-backdrop-sepia: ; margin: 0px; padding-left: 30px; position: relative; caret-color: rgb(52, 73, 94); color: rgb(52, 73, 94); font-family: Ubuntu, &amp;quot;Source Sans Pro&amp;quot;, sans-serif; font-size: 16px; font-style: normal; font-variant-caps: normal; font-weight: 400; letter-spacing: normal; text-align: left; text-indent: 0px; text-transform: none; white-space: normal; word-spacing: 0px; -webkit-text-stroke-width: 0px; text-decoration: none;&quot; data-mark=&quot;-&quot; class=&quot;ul-list&quot;&gt;&lt;li style=&quot;box-sizing: border-box; --tw-border-spacing-x: 0; --tw-border-spacing-y: 0; --tw-translate-x: 0; --tw-translate-y: 0; --tw-rotate: 0; --tw-skew-x: 0; --tw-skew-y: 0; --tw-scale-x: 1; --tw-scale-y: 1; --tw-pan-x: ; --tw-pan-y: ; --tw-pinch-zoom: ; --tw-scroll-snap-strictness: proximity; --tw-ordinal: ; --tw-slashed-zero: ; --tw-numeric-figure: ; --tw-numeric-spacing: ; --tw-numeric-fraction: ; --tw-ring-inset: ; --tw-ring-offset-width: 0px; --tw-ring-offset-color: light-dark(#fff, #000000); --tw-ring-color: rgb(59 130 246 / .5); --tw-ring-offset-shadow: 0 0 #0000; --tw-ring-shadow: 0 0 #0000; --tw-shadow: 0 0 #0000; --tw-shadow-colored: 0 0 #0000; --tw-blur: ; --tw-brightness: ; --tw-contrast: ; --tw-grayscale: ; --tw-hue-rotate: ; --tw-invert: ; --tw-saturate: ; --tw-sepia: ; --tw-drop-shadow: ; --tw-backdrop-blur: ; --tw-backdrop-brightness: ; --tw-backdrop-contrast: ; --tw-backdrop-grayscale: ; --tw-backdrop-hue-rotate: ; --tw-backdrop-invert: ; --tw-backdrop-opacity: ; --tw-backdrop-saturate: ; --tw-backdrop-sepia: ; margin: 0px; position: relative;&quot; class=&quot;md-list-item md-focus-container&quot;&gt;&lt;p style=&quot;box-sizing: border-box; --tw-border-spacing-x: 0; --tw-border-spacing-y: 0; --tw-translate-x: 0; --tw-translate-y: 0; --tw-rotate: 0; --tw-skew-x: 0; --tw-skew-y: 0; --tw-scale-x: 1; --tw-scale-y: 1; --tw-pan-x: ; --tw-pan-y: ; --tw-pinch-zoom: ; --tw-scroll-snap-strictness: proximity; --tw-ordinal: ; --tw-slashed-zero: ; --tw-numeric-figure: ; --tw-numeric-spacing: ; --tw-numeric-fraction: ; --tw-ring-inset: ; --tw-ring-offset-width: 0px; --tw-ring-offset-color: light-dark(#fff, #000000); --tw-ring-color: rgb(59 130 246 / .5); --tw-ring-offset-shadow: 0 0 #0000; --tw-ring-shadow: 0 0 #0000; --tw-shadow: 0 0 #0000; --tw-shadow-colored: 0 0 #0000; --tw-blur: ; --tw-brightness: ; --tw-contrast: ; --tw-grayscale: ; --tw-hue-rotate: ; --tw-invert: ; --tw-saturate: ; --tw-sepia: ; --tw-drop-shadow: ; --tw-backdrop-blur: ; --tw-backdrop-brightness: ; --tw-backdrop-contrast: ; --tw-backdrop-grayscale: ; --tw-backdrop-hue-rotate: ; --tw-backdrop-invert: ; --tw-backdrop-opacity: ; --tw-backdrop-saturate: ; --tw-backdrop-sepia: ; line-height: 1.6rem; orphans: 4; margin: 0px 0px 0.5rem; white-space: pre-wrap; position: relative; word-spacing: 0.05rem;&quot; class=&quot;md-end-block md-p md-focus&quot;&gt;&lt;br&gt;&lt;/p&gt;&lt;/li&gt;&lt;/ul&gt;" style="text;html=1;align=center;verticalAlign=middle;whiteSpace=wrap;rounded=0;" vertex="1" parent="1">
          <mxGeometry x="800" y="170" width="600" height="30" as="geometry" />
        </mxCell>
        <mxCell id="XD7w7CoPH_M2G8A22QaK-13" value="拜访" style="ellipse;whiteSpace=wrap;html=1;" vertex="1" parent="1">
          <mxGeometry x="300" y="290" width="90" height="50" as="geometry" />
        </mxCell>
        <mxCell id="XD7w7CoPH_M2G8A22QaK-14" value="陪访" style="ellipse;whiteSpace=wrap;html=1;" vertex="1" parent="1">
          <mxGeometry x="300" y="360" width="90" height="50" as="geometry" />
        </mxCell>
        <mxCell id="XD7w7CoPH_M2G8A22QaK-15" value="创建优惠券" style="ellipse;whiteSpace=wrap;html=1;" vertex="1" parent="1">
          <mxGeometry x="300" y="500" width="90" height="50" as="geometry" />
        </mxCell>
        <mxCell id="XD7w7CoPH_M2G8A22QaK-16" value="申请优惠券" style="ellipse;whiteSpace=wrap;html=1;" vertex="1" parent="1">
          <mxGeometry x="300" y="570" width="90" height="50" as="geometry" />
        </mxCell>
        <mxCell id="XD7w7CoPH_M2G8A22QaK-18" value="推品" style="ellipse;whiteSpace=wrap;html=1;" vertex="1" parent="1">
          <mxGeometry x="300" y="640" width="90" height="50" as="geometry" />
        </mxCell>
        <mxCell id="XD7w7CoPH_M2G8A22QaK-19" value="下单" style="ellipse;whiteSpace=wrap;html=1;" vertex="1" parent="1">
          <mxGeometry x="300" y="710" width="90" height="50" as="geometry" />
        </mxCell>
        <mxCell id="XD7w7CoPH_M2G8A22QaK-20" value="查看业绩" style="ellipse;whiteSpace=wrap;html=1;" vertex="1" parent="1">
          <mxGeometry x="300" y="850" width="90" height="50" as="geometry" />
        </mxCell>
        <mxCell id="XD7w7CoPH_M2G8A22QaK-21" value="业绩分析" style="ellipse;whiteSpace=wrap;html=1;" vertex="1" parent="1">
          <mxGeometry x="300" y="910" width="90" height="50" as="geometry" />
        </mxCell>
        <mxCell id="XD7w7CoPH_M2G8A22QaK-22" value="指定策略" style="ellipse;whiteSpace=wrap;html=1;" vertex="1" parent="1">
          <mxGeometry x="300" y="990" width="90" height="50" as="geometry" />
        </mxCell>
        <mxCell id="XD7w7CoPH_M2G8A22QaK-24" value="售后" style="ellipse;whiteSpace=wrap;html=1;" vertex="1" parent="1">
          <mxGeometry x="300" y="780" width="90" height="50" as="geometry" />
        </mxCell>
        <mxCell id="XD7w7CoPH_M2G8A22QaK-25" value="履约" style="ellipse;whiteSpace=wrap;html=1;" vertex="1" parent="1">
          <mxGeometry x="310" y="1090" width="90" height="50" as="geometry" />
        </mxCell>
        <mxCell id="XD7w7CoPH_M2G8A22QaK-26" value="创建门店" style="ellipse;whiteSpace=wrap;html=1;" vertex="1" parent="1">
          <mxGeometry x="300" y="80" width="90" height="50" as="geometry" />
        </mxCell>
        <mxCell id="XD7w7CoPH_M2G8A22QaK-29" value="提成&amp;amp;佣金结算" style="ellipse;whiteSpace=wrap;html=1;" vertex="1" parent="1">
          <mxGeometry x="300" y="1170" width="90" height="50" as="geometry" />
        </mxCell>
        <mxCell id="XD7w7CoPH_M2G8A22QaK-36" value="销售机会" style="ellipse;whiteSpace=wrap;html=1;" vertex="1" parent="1">
          <mxGeometry x="300" y="430" width="90" height="50" as="geometry" />
        </mxCell>
      </root>
    </mxGraphModel>
  </diagram>
</mxfile>
